<svg width="2267" height="1715" viewBox="0 0 2267 1715" fill="none" xmlns="http://www.w3.org/2000/svg">
<path d="M12.0739 117V101.02C12.0739 96.1667 12.9321 91.0175 14.6484 85.5724C16.424 80.0682 18.969 74.7711 22.2834 69.6811C25.657 64.532 29.7112 60.0634 34.446 56.2756L45.8097 65.5085C42.081 70.8352 38.8258 76.3987 36.044 82.1989C33.3215 87.9399 31.9602 94.0952 31.9602 100.665V117H12.0739ZM57.5284 117V101.02C57.5284 96.1667 58.3866 91.0175 60.103 85.5724C61.8786 80.0682 64.4235 74.7711 67.7379 69.6811C71.1115 64.532 75.1657 60.0634 79.9006 56.2756L91.2642 65.5085C87.5355 70.8352 84.2803 76.3987 81.4986 82.1989C78.776 87.9399 77.4148 94.0952 77.4148 100.665V117H57.5284ZM117.232 242V60.1818H138.184V127.298H139.959C141.498 124.931 143.629 121.912 146.351 118.243C149.133 114.514 153.098 111.2 158.248 108.3C163.456 105.34 170.499 103.861 179.377 103.861C190.859 103.861 200.98 106.731 209.739 112.472C218.498 118.213 225.334 126.351 230.247 136.886C235.159 147.421 237.615 159.85 237.615 174.173C237.615 188.615 235.159 201.132 230.247 211.727C225.334 222.262 218.528 230.429 209.828 236.229C201.127 241.97 191.096 244.841 179.732 244.841C170.972 244.841 163.959 243.391 158.691 240.491C153.424 237.531 149.37 234.187 146.529 230.459C143.688 226.671 141.498 223.534 139.959 221.048H137.473V242H117.232ZM137.828 173.818C137.828 184.116 139.338 193.201 142.356 201.073C145.375 208.886 149.784 215.011 155.584 219.45C161.384 223.83 168.487 226.02 176.891 226.02C185.65 226.02 192.96 223.712 198.819 219.095C204.738 214.42 209.177 208.146 212.136 200.274C215.154 192.343 216.664 183.525 216.664 173.818C216.664 164.23 215.184 155.589 212.225 147.895C209.325 140.142 204.915 134.016 198.997 129.518C193.137 124.96 185.769 122.682 176.891 122.682C168.368 122.682 161.207 124.842 155.407 129.163C149.606 133.424 145.227 139.402 142.267 147.096C139.308 154.731 137.828 163.638 137.828 173.818ZM269.664 242V105.636H289.906V126.233H291.326C293.812 119.486 298.31 114.011 304.821 109.809C311.331 105.607 318.67 103.506 326.838 103.506C328.377 103.506 330.3 103.535 332.608 103.594C334.917 103.654 336.663 103.742 337.846 103.861V125.168C337.136 124.99 335.508 124.724 332.963 124.369C330.478 123.954 327.844 123.747 325.062 123.747C318.433 123.747 312.515 125.138 307.306 127.92C302.157 130.642 298.074 134.43 295.055 139.283C292.096 144.077 290.616 149.552 290.616 155.707V242H269.664ZM362.682 242V105.636H383.634V242H362.682ZM373.335 82.9091C369.252 82.9091 365.73 81.5182 362.771 78.7365C359.871 75.9548 358.421 72.6108 358.421 68.7045C358.421 64.7983 359.871 61.4543 362.771 58.6726C365.73 55.8909 369.252 54.5 373.335 54.5C377.419 54.5 380.911 55.8909 383.811 58.6726C386.771 61.4543 388.25 64.7983 388.25 68.7045C388.25 72.6108 386.771 75.9548 383.811 78.7365C380.911 81.5182 377.419 82.9091 373.335 82.9091ZM477.051 295.977C466.93 295.977 458.23 294.675 450.95 292.071C443.67 289.526 437.604 286.152 432.75 281.95C427.956 277.807 424.139 273.368 421.298 268.634L437.988 256.915C439.882 259.401 442.279 262.241 445.179 265.438C448.079 268.693 452.045 271.504 457.076 273.871C462.166 276.298 468.824 277.511 477.051 277.511C488.059 277.511 497.144 274.848 504.306 269.521C511.467 264.195 515.048 255.849 515.048 244.486V216.787H513.272C511.734 219.273 509.544 222.35 506.703 226.02C503.921 229.63 499.896 232.856 494.629 235.697C489.421 238.478 482.377 239.869 473.5 239.869C462.491 239.869 452.607 237.265 443.848 232.057C435.147 226.848 428.252 219.273 423.162 209.33C418.132 199.386 415.616 187.312 415.616 173.108C415.616 159.14 418.072 146.978 422.985 136.62C427.897 126.203 434.733 118.154 443.493 112.472C452.252 106.731 462.373 103.861 473.855 103.861C482.733 103.861 489.776 105.34 494.984 108.3C500.252 111.2 504.276 114.514 507.058 118.243C509.899 121.912 512.089 124.931 513.627 127.298H515.758V105.636H536V245.906C536 257.625 533.336 267.154 528.01 274.493C522.742 281.891 515.64 287.307 506.703 290.739C497.825 294.231 487.941 295.977 477.051 295.977ZM476.341 221.048C484.745 221.048 491.847 219.125 497.647 215.278C503.448 211.431 507.857 205.897 510.875 198.676C513.894 191.455 515.403 182.814 515.403 172.753C515.403 162.928 513.923 154.257 510.964 146.741C508.005 139.224 503.625 133.335 497.825 129.074C492.025 124.812 484.863 122.682 476.341 122.682C467.463 122.682 460.065 124.931 454.146 129.429C448.287 133.927 443.877 139.964 440.918 147.54C438.018 155.116 436.568 163.52 436.568 172.753C436.568 182.223 438.047 190.597 441.007 197.877C444.025 205.098 448.464 210.78 454.324 214.923C460.242 219.006 467.581 221.048 476.341 221.048ZM595.304 159.969V242H574.352V60.1818H595.304V126.943H597.079C600.275 119.9 605.069 114.307 611.461 110.164C617.913 105.962 626.494 103.861 637.207 103.861C646.499 103.861 654.637 105.725 661.621 109.454C668.605 113.123 674.02 118.776 677.868 126.411C681.774 133.986 683.727 143.634 683.727 155.352V242H662.775V156.773C662.775 145.942 659.964 137.567 654.341 131.648C648.778 125.671 641.054 122.682 631.17 122.682C624.305 122.682 618.149 124.132 612.704 127.032C607.318 129.932 603.057 134.164 599.92 139.727C596.842 145.291 595.304 152.038 595.304 159.969ZM781.361 105.636V123.392H710.693V105.636H781.361ZM731.29 72.9659H752.242V202.938C752.242 208.856 753.1 213.295 754.816 216.254C756.592 219.154 758.841 221.107 761.563 222.114C764.345 223.061 767.275 223.534 770.352 223.534C772.661 223.534 774.555 223.416 776.034 223.179C777.514 222.883 778.698 222.646 779.585 222.469L783.847 241.29C782.426 241.822 780.444 242.355 777.899 242.888C775.354 243.48 772.128 243.776 768.222 243.776C762.303 243.776 756.503 242.503 750.821 239.958C745.199 237.413 740.523 233.536 736.794 228.328C733.125 223.12 731.29 216.55 731.29 208.619V72.9659ZM923.318 245.196C914.677 245.196 906.834 243.568 899.791 240.313C892.748 236.999 887.155 232.234 883.012 226.02C878.869 219.746 876.798 212.17 876.798 203.293C876.798 195.48 878.337 189.147 881.414 184.294C884.492 179.382 888.605 175.535 893.754 172.753C898.904 169.971 904.585 167.9 910.8 166.538C917.074 165.118 923.377 163.993 929.71 163.165C937.996 162.099 944.713 161.3 949.862 160.768C955.071 160.176 958.859 159.199 961.226 157.838C963.653 156.477 964.866 154.109 964.866 150.736V150.026C964.866 141.266 962.469 134.46 957.675 129.607C952.94 124.753 945.749 122.327 936.102 122.327C926.099 122.327 918.257 124.517 912.575 128.896C906.894 133.276 902.899 137.952 900.59 142.923L880.704 135.821C884.255 127.535 888.99 121.084 894.909 116.467C900.886 111.792 907.397 108.536 914.44 106.702C921.542 104.808 928.526 103.861 935.392 103.861C939.771 103.861 944.802 104.393 950.484 105.459C956.225 106.465 961.759 108.566 967.085 111.762C972.471 114.958 976.94 119.782 980.491 126.233C984.042 132.684 985.818 141.325 985.818 152.156V242H964.866V223.534H963.801C962.38 226.493 960.013 229.66 956.698 233.033C953.384 236.407 948.975 239.277 943.47 241.645C937.966 244.012 931.249 245.196 923.318 245.196ZM926.514 226.375C934.8 226.375 941.784 224.747 947.465 221.492C953.206 218.237 957.527 214.035 960.427 208.886C963.386 203.737 964.866 198.321 964.866 192.639V173.463C963.978 174.528 962.025 175.505 959.007 176.393C956.047 177.221 952.615 177.961 948.708 178.612C944.861 179.204 941.103 179.737 937.433 180.21C933.823 180.625 930.893 180.98 928.644 181.276C923.199 181.986 918.109 183.14 913.374 184.738C908.699 186.277 904.911 188.615 902.011 191.751C899.17 194.829 897.749 199.031 897.749 204.358C897.749 211.638 900.442 217.142 905.828 220.871C911.273 224.54 918.169 226.375 926.514 226.375ZM1024.06 242V105.636H1044.3V126.233H1045.72C1048.21 119.486 1052.7 114.011 1059.22 109.809C1065.73 105.607 1073.06 103.506 1081.23 103.506C1082.77 103.506 1084.69 103.535 1087 103.594C1089.31 103.654 1091.06 103.742 1092.24 103.861V125.168C1091.53 124.99 1089.9 124.724 1087.36 124.369C1084.87 123.954 1082.24 123.747 1079.46 123.747C1072.83 123.747 1066.91 125.138 1061.7 127.92C1056.55 130.642 1052.47 134.43 1049.45 139.283C1046.49 144.077 1045.01 149.552 1045.01 155.707V242H1024.06ZM1117.08 242V105.636H1138.03V242H1117.08ZM1127.73 82.9091C1123.65 82.9091 1120.12 81.5182 1117.17 78.7365C1114.27 75.9548 1112.82 72.6108 1112.82 68.7045C1112.82 64.7983 1114.27 61.4543 1117.17 58.6726C1120.12 55.8909 1123.65 54.5 1127.73 54.5C1131.81 54.5 1135.31 55.8909 1138.21 58.6726C1141.17 61.4543 1142.64 64.7983 1142.64 68.7045C1142.64 72.6108 1141.17 75.9548 1138.21 78.7365C1135.31 81.5182 1131.81 82.9091 1127.73 82.9091ZM1231.45 295.977C1221.32 295.977 1212.62 294.675 1205.34 292.071C1198.06 289.526 1192 286.152 1187.14 281.95C1182.35 277.807 1178.53 273.368 1175.69 268.634L1192.38 256.915C1194.28 259.401 1196.67 262.241 1199.57 265.438C1202.47 268.693 1206.44 271.504 1211.47 273.871C1216.56 276.298 1223.22 277.511 1231.45 277.511C1242.45 277.511 1251.54 274.848 1258.7 269.521C1265.86 264.195 1269.44 255.849 1269.44 244.486V216.787H1267.67C1266.13 219.273 1263.94 222.35 1261.1 226.02C1258.32 229.63 1254.29 232.856 1249.02 235.697C1243.82 238.478 1236.77 239.869 1227.89 239.869C1216.89 239.869 1207 237.265 1198.24 232.057C1189.54 226.848 1182.65 219.273 1177.56 209.33C1172.53 199.386 1170.01 187.312 1170.01 173.108C1170.01 159.14 1172.47 146.978 1177.38 136.62C1182.29 126.203 1189.13 118.154 1197.89 112.472C1206.65 106.731 1216.77 103.861 1228.25 103.861C1237.13 103.861 1244.17 105.34 1249.38 108.3C1254.65 111.2 1258.67 114.514 1261.45 118.243C1264.29 121.912 1266.48 124.931 1268.02 127.298H1270.15V105.636H1290.39V245.906C1290.39 257.625 1287.73 267.154 1282.4 274.493C1277.14 281.891 1270.03 287.307 1261.1 290.739C1252.22 294.231 1242.34 295.977 1231.45 295.977ZM1230.74 221.048C1239.14 221.048 1246.24 219.125 1252.04 215.278C1257.84 211.431 1262.25 205.897 1265.27 198.676C1268.29 191.455 1269.8 182.814 1269.8 172.753C1269.8 162.928 1268.32 154.257 1265.36 146.741C1262.4 139.224 1258.02 133.335 1252.22 129.074C1246.42 124.812 1239.26 122.682 1230.74 122.682C1221.86 122.682 1214.46 124.931 1208.54 129.429C1202.68 133.927 1198.27 139.964 1195.31 147.54C1192.41 155.116 1190.96 163.52 1190.96 172.753C1190.96 182.223 1192.44 190.597 1195.4 197.877C1198.42 205.098 1202.86 210.78 1208.72 214.923C1214.64 219.006 1221.98 221.048 1230.74 221.048ZM1349.7 159.969V242H1328.75V60.1818H1349.7V126.943H1351.47C1354.67 119.9 1359.46 114.307 1365.86 110.164C1372.31 105.962 1380.89 103.861 1391.6 103.861C1400.89 103.861 1409.03 105.725 1416.02 109.454C1423 113.123 1428.42 118.776 1432.26 126.411C1436.17 133.986 1438.12 143.634 1438.12 155.352V242H1417.17V156.773C1417.17 145.942 1414.36 137.567 1408.74 131.648C1403.17 125.671 1395.45 122.682 1385.56 122.682C1378.7 122.682 1372.54 124.132 1367.1 127.032C1361.71 129.932 1357.45 134.164 1354.31 139.727C1351.24 145.291 1349.7 152.038 1349.7 159.969ZM1535.76 105.636V123.392H1465.09V105.636H1535.76ZM1485.68 72.9659H1506.64V202.938C1506.64 208.856 1507.49 213.295 1509.21 216.254C1510.99 219.154 1513.24 221.107 1515.96 222.114C1518.74 223.061 1521.67 223.534 1524.75 223.534C1527.06 223.534 1528.95 223.416 1530.43 223.179C1531.91 222.883 1533.09 222.646 1533.98 222.469L1538.24 241.29C1536.82 241.822 1534.84 242.355 1532.29 242.888C1529.75 243.48 1526.52 243.776 1522.62 243.776C1516.7 243.776 1510.9 242.503 1505.22 239.958C1499.59 237.413 1494.92 233.536 1491.19 228.328C1487.52 223.12 1485.68 216.55 1485.68 208.619V72.9659ZM1592.82 60.1818V76.1619C1592.82 81.0151 1591.93 86.1939 1590.15 91.6982C1588.44 97.1432 1585.89 102.44 1582.52 107.589C1579.21 112.679 1575.18 117.118 1570.45 120.906L1559.08 111.673C1562.81 106.347 1566.04 100.813 1568.76 95.0717C1571.54 89.2715 1572.93 83.0866 1572.93 76.517V60.1818H1592.82ZM1638.27 60.1818V76.1619C1638.27 81.0151 1637.38 86.1939 1635.61 91.6982C1633.89 97.1432 1631.35 102.44 1627.97 107.589C1624.66 112.679 1620.64 117.118 1615.9 120.906L1604.54 111.673C1608.27 106.347 1611.49 100.813 1614.21 95.0717C1617 89.2715 1618.39 83.0866 1618.39 76.517V60.1818H1638.27ZM1803.09 117V101.02C1803.09 96.1667 1803.95 91.0175 1805.66 85.5724C1807.44 80.0682 1809.98 74.7711 1813.3 69.6811C1816.67 64.532 1820.73 60.0634 1825.46 56.2756L1836.83 65.5085C1833.1 70.8352 1829.84 76.3987 1827.06 82.1989C1824.34 87.9399 1822.98 94.0952 1822.98 100.665V117H1803.09ZM1848.54 117V101.02C1848.54 96.1667 1849.4 91.0175 1851.12 85.5724C1852.89 80.0682 1855.44 74.7711 1858.75 69.6811C1862.13 64.532 1866.18 60.0634 1870.92 56.2756L1882.28 65.5085C1878.55 70.8352 1875.3 76.3987 1872.51 82.1989C1869.79 87.9399 1868.43 94.0952 1868.43 100.665V117H1848.54ZM1960.8 244.841C1948.49 244.841 1937.69 241.911 1928.4 236.052C1919.17 230.192 1911.95 221.995 1906.74 211.46C1901.59 200.925 1899.01 188.615 1899.01 174.528C1899.01 160.324 1901.59 147.924 1906.74 137.33C1911.95 126.736 1919.17 118.509 1928.4 112.65C1937.69 106.79 1948.49 103.861 1960.8 103.861C1973.11 103.861 1983.89 106.79 1993.12 112.65C2002.41 118.509 2009.63 126.736 2014.78 137.33C2019.99 147.924 2022.59 160.324 2022.59 174.528C2022.59 188.615 2019.99 200.925 2014.78 211.46C2009.63 221.995 2002.41 230.192 1993.12 236.052C1983.89 241.911 1973.11 244.841 1960.8 244.841ZM1960.8 226.02C1970.16 226.02 1977.85 223.623 1983.89 218.829C1989.92 214.035 1994.39 207.732 1997.29 199.919C2000.19 192.107 2001.64 183.643 2001.64 174.528C2001.64 165.414 2000.19 156.921 1997.29 149.049C1994.39 141.177 1989.92 134.815 1983.89 129.962C1977.85 125.108 1970.16 122.682 1960.8 122.682C1951.45 122.682 1943.76 125.108 1937.72 129.962C1931.69 134.815 1927.22 141.177 1924.32 149.049C1921.42 156.921 1919.97 165.414 1919.97 174.528C1919.97 183.643 1921.42 192.107 1924.32 199.919C1927.22 207.732 1931.69 214.035 1937.72 218.829C1943.76 223.623 1951.45 226.02 1960.8 226.02ZM2074.11 192.284L2073.75 166.361H2078.01L2137.67 105.636H2163.6L2100.03 169.912H2098.26L2074.11 192.284ZM2054.58 242V60.1818H2075.53V242H2054.58ZM2141.22 242L2087.96 174.528L2102.87 159.969L2167.86 242H2141.22ZM2209.03 60.1818V76.1619C2209.03 81.0151 2208.14 86.1939 2206.37 91.6982C2204.65 97.1432 2202.1 102.44 2198.73 107.589C2195.42 112.679 2191.39 117.118 2186.66 120.906L2175.29 111.673C2179.02 106.347 2182.25 100.813 2184.97 95.0717C2187.75 89.2715 2189.14 83.0866 2189.14 76.517V60.1818H2209.03ZM2254.48 60.1818V76.1619C2254.48 81.0151 2253.6 86.1939 2251.82 91.6982C2250.1 97.1432 2247.56 102.44 2244.19 107.589C2240.87 112.679 2236.85 117.118 2232.11 120.906L2220.75 111.673C2224.48 106.347 2227.7 100.813 2230.42 95.0717C2233.21 89.2715 2234.6 83.0866 2234.6 76.517V60.1818H2254.48Z" fill="#006CA9"/>
<path d="M12.0739 1529V1513.02C12.0739 1508.17 12.9321 1503.02 14.6484 1497.57C16.424 1492.07 18.969 1486.77 22.2834 1481.68C25.657 1476.53 29.7112 1472.06 34.446 1468.28L45.8097 1477.51C42.081 1482.84 38.8258 1488.4 36.044 1494.2C33.3215 1499.94 31.9602 1506.1 31.9602 1512.66V1529H12.0739ZM57.5284 1529V1513.02C57.5284 1508.17 58.3866 1503.02 60.103 1497.57C61.8786 1492.07 64.4235 1486.77 67.7379 1481.68C71.1115 1476.53 75.1657 1472.06 79.9006 1468.28L91.2642 1477.51C87.5355 1482.84 84.2803 1488.4 81.4986 1494.2C78.776 1499.94 77.4148 1506.1 77.4148 1512.66V1529H57.5284ZM117.232 1654V1472.18H138.184V1539.3H139.959C141.498 1536.93 143.629 1533.91 146.351 1530.24C149.133 1526.51 153.098 1523.2 158.248 1520.3C163.456 1517.34 170.499 1515.86 179.377 1515.86C190.859 1515.86 200.98 1518.73 209.739 1524.47C218.498 1530.21 225.334 1538.35 230.247 1548.89C235.159 1559.42 237.615 1571.85 237.615 1586.17C237.615 1600.61 235.159 1613.13 230.247 1623.73C225.334 1634.26 218.528 1642.43 209.828 1648.23C201.127 1653.97 191.096 1656.84 179.732 1656.84C170.972 1656.84 163.959 1655.39 158.691 1652.49C153.424 1649.53 149.37 1646.19 146.529 1642.46C143.688 1638.67 141.498 1635.53 139.959 1633.05H137.473V1654H117.232ZM137.828 1585.82C137.828 1596.12 139.338 1605.2 142.356 1613.07C145.375 1620.89 149.784 1627.01 155.584 1631.45C161.384 1635.83 168.487 1638.02 176.891 1638.02C185.65 1638.02 192.96 1635.71 198.819 1631.1C204.738 1626.42 209.177 1620.15 212.136 1612.27C215.154 1604.34 216.664 1595.52 216.664 1585.82C216.664 1576.23 215.184 1567.59 212.225 1559.89C209.325 1552.14 204.915 1546.02 198.997 1541.52C193.137 1536.96 185.769 1534.68 176.891 1534.68C168.368 1534.68 161.207 1536.84 155.407 1541.16C149.606 1545.42 145.227 1551.4 142.267 1559.1C139.308 1566.73 137.828 1575.64 137.828 1585.82ZM290.616 1472.18V1654H269.664V1472.18H290.616ZM386.164 1656.84C373.025 1656.84 361.691 1653.94 352.162 1648.14C342.692 1642.28 335.383 1634.11 330.233 1623.64C325.144 1613.1 322.599 1600.85 322.599 1586.88C322.599 1572.92 325.144 1560.61 330.233 1549.95C335.383 1539.24 342.544 1530.89 351.718 1524.92C360.951 1518.88 371.723 1515.86 384.033 1515.86C391.135 1515.86 398.149 1517.04 405.074 1519.41C411.998 1521.78 418.302 1525.63 423.983 1530.95C429.665 1536.22 434.193 1543.2 437.567 1551.9C440.94 1560.61 442.627 1571.32 442.627 1584.04V1592.92H337.513V1574.81H421.32C421.32 1567.12 419.781 1560.25 416.704 1554.21C413.685 1548.18 409.365 1543.41 403.742 1539.92C398.179 1536.43 391.609 1534.68 384.033 1534.68C375.688 1534.68 368.467 1536.75 362.371 1540.9C356.334 1544.98 351.688 1550.31 348.433 1556.88C345.178 1563.45 343.55 1570.49 343.55 1578.01V1590.08C343.55 1600.38 345.326 1609.11 348.877 1616.27C352.487 1623.37 357.488 1628.79 363.881 1632.52C370.273 1636.19 377.7 1638.02 386.164 1638.02C391.668 1638.02 396.64 1637.25 401.079 1635.71C405.577 1634.11 409.453 1631.75 412.709 1628.61C415.964 1625.41 418.479 1621.45 420.255 1616.71L440.496 1622.39C438.366 1629.26 434.785 1635.3 429.754 1640.51C424.723 1645.65 418.509 1649.68 411.111 1652.58C403.712 1655.42 395.397 1656.84 386.164 1656.84ZM535.223 1517.64V1535.39H461.714V1517.64H535.223ZM483.731 1654V1498.82C483.731 1491 485.566 1484.49 489.236 1479.28C492.905 1474.08 497.67 1470.17 503.529 1467.57C509.388 1464.96 515.573 1463.66 522.084 1463.66C527.233 1463.66 531.435 1464.07 534.69 1464.9C537.945 1465.73 540.372 1466.5 541.97 1467.21L535.933 1485.32C534.868 1484.97 533.388 1484.52 531.494 1483.99C529.659 1483.46 527.233 1483.19 524.214 1483.19C517.29 1483.19 512.288 1484.94 509.211 1488.43C506.192 1491.92 504.683 1497.04 504.683 1503.79V1654H483.731ZM623.89 1517.64V1535.39H553.223V1517.64H623.89ZM573.819 1484.97H594.771V1614.94C594.771 1620.86 595.629 1625.29 597.346 1628.25C599.121 1631.15 601.37 1633.11 604.093 1634.11C606.874 1635.06 609.804 1635.53 612.882 1635.53C615.19 1635.53 617.084 1635.42 618.564 1635.18C620.043 1634.88 621.227 1634.65 622.115 1634.47L626.376 1653.29C624.956 1653.82 622.973 1654.36 620.428 1654.89C617.883 1655.48 614.657 1655.78 610.751 1655.78C604.833 1655.78 599.032 1654.5 593.35 1651.96C587.728 1649.41 583.052 1645.54 579.324 1640.33C575.654 1635.12 573.819 1628.55 573.819 1620.62V1484.97ZM765.847 1657.2C757.206 1657.2 749.364 1655.57 742.321 1652.31C735.278 1649 729.685 1644.23 725.542 1638.02C721.399 1631.75 719.327 1624.17 719.327 1615.29C719.327 1607.48 720.866 1601.15 723.944 1596.29C727.021 1591.38 731.135 1587.53 736.284 1584.75C741.433 1581.97 747.115 1579.9 753.329 1578.54C759.603 1577.12 765.906 1575.99 772.239 1575.16C780.525 1574.1 787.243 1573.3 792.392 1572.77C797.6 1572.18 801.388 1571.2 803.755 1569.84C806.182 1568.48 807.395 1566.11 807.395 1562.74V1562.03C807.395 1553.27 804.998 1546.46 800.204 1541.61C795.469 1536.75 788.278 1534.33 778.631 1534.33C768.629 1534.33 760.787 1536.52 755.105 1540.9C749.423 1545.28 745.428 1549.95 743.12 1554.92L723.233 1547.82C726.784 1539.54 731.519 1533.08 737.438 1528.47C743.416 1523.79 749.926 1520.54 756.969 1518.7C764.071 1516.81 771.055 1515.86 777.921 1515.86C782.301 1515.86 787.331 1516.39 793.013 1517.46C798.754 1518.46 804.288 1520.57 809.615 1523.76C815.001 1526.96 819.469 1531.78 823.02 1538.23C826.571 1544.68 828.347 1553.33 828.347 1564.16V1654H807.395V1635.53H806.33C804.909 1638.49 802.542 1641.66 799.228 1645.03C795.913 1648.41 791.504 1651.28 786 1653.64C780.495 1656.01 773.778 1657.2 765.847 1657.2ZM769.043 1638.38C777.329 1638.38 784.313 1636.75 789.995 1633.49C795.736 1630.24 800.056 1626.03 802.956 1620.89C805.916 1615.74 807.395 1610.32 807.395 1604.64V1585.46C806.507 1586.53 804.554 1587.5 801.536 1588.39C798.577 1589.22 795.144 1589.96 791.238 1590.61C787.391 1591.2 783.632 1591.74 779.963 1592.21C776.352 1592.62 773.423 1592.98 771.174 1593.28C765.729 1593.99 760.639 1595.14 755.904 1596.74C751.228 1598.28 747.44 1600.61 744.54 1603.75C741.699 1606.83 740.279 1611.03 740.279 1616.36C740.279 1623.64 742.972 1629.14 748.358 1632.87C753.803 1636.54 760.698 1638.38 769.043 1638.38ZM887.54 1472.18V1654H866.588V1472.18H887.54ZM983.088 1656.84C969.949 1656.84 958.614 1653.94 949.086 1648.14C939.616 1642.28 932.306 1634.11 927.157 1623.64C922.067 1613.1 919.522 1600.85 919.522 1586.88C919.522 1572.92 922.067 1560.61 927.157 1549.95C932.306 1539.24 939.468 1530.89 948.642 1524.92C957.875 1518.88 968.646 1515.86 980.957 1515.86C988.059 1515.86 995.073 1517.04 1002 1519.41C1008.92 1521.78 1015.23 1525.63 1020.91 1530.95C1026.59 1536.22 1031.12 1543.2 1034.49 1551.9C1037.86 1560.61 1039.55 1571.32 1039.55 1584.04V1592.92H934.437V1574.81H1018.24C1018.24 1567.12 1016.71 1560.25 1013.63 1554.21C1010.61 1548.18 1006.29 1543.41 1000.67 1539.92C995.102 1536.43 988.533 1534.68 980.957 1534.68C972.612 1534.68 965.391 1536.75 959.295 1540.9C953.258 1544.98 948.612 1550.31 945.357 1556.88C942.102 1563.45 940.474 1570.49 940.474 1578.01V1590.08C940.474 1600.38 942.25 1609.11 945.801 1616.27C949.411 1623.37 954.412 1628.79 960.804 1632.52C967.196 1636.19 974.624 1638.02 983.088 1638.02C988.592 1638.02 993.564 1637.25 998.002 1635.71C1002.5 1634.11 1006.38 1631.75 1009.63 1628.61C1012.89 1625.41 1015.4 1621.45 1017.18 1616.71L1037.42 1622.39C1035.29 1629.26 1031.71 1635.3 1026.68 1640.51C1021.65 1645.65 1015.43 1649.68 1008.03 1652.58C1000.64 1655.42 992.321 1656.84 983.088 1656.84ZM1132.15 1517.64V1535.39H1058.64V1517.64H1132.15ZM1080.66 1654V1498.82C1080.66 1491 1082.49 1484.49 1086.16 1479.28C1089.83 1474.08 1094.59 1470.17 1100.45 1467.57C1106.31 1464.96 1112.5 1463.66 1119.01 1463.66C1124.16 1463.66 1128.36 1464.07 1131.61 1464.9C1134.87 1465.73 1137.3 1466.5 1138.89 1467.21L1132.86 1485.32C1131.79 1484.97 1130.31 1484.52 1128.42 1483.99C1126.58 1483.46 1124.16 1483.19 1121.14 1483.19C1114.21 1483.19 1109.21 1484.94 1106.13 1488.43C1103.12 1491.92 1101.61 1497.04 1101.61 1503.79V1654H1080.66ZM1220.81 1517.64V1535.39H1150.15V1517.64H1220.81ZM1170.74 1484.97H1191.69V1614.94C1191.69 1620.86 1192.55 1625.29 1194.27 1628.25C1196.04 1631.15 1198.29 1633.11 1201.02 1634.11C1203.8 1635.06 1206.73 1635.53 1209.81 1635.53C1212.11 1635.53 1214.01 1635.42 1215.49 1635.18C1216.97 1634.88 1218.15 1634.65 1219.04 1634.47L1223.3 1653.29C1221.88 1653.82 1219.9 1654.36 1217.35 1654.89C1214.81 1655.48 1211.58 1655.78 1207.67 1655.78C1201.76 1655.78 1195.96 1654.5 1190.27 1651.96C1184.65 1649.41 1179.98 1645.54 1176.25 1640.33C1172.58 1635.12 1170.74 1628.55 1170.74 1620.62V1484.97ZM1283.58 1629.14L1282.16 1638.73C1281.15 1645.48 1279.61 1652.7 1277.54 1660.39C1275.53 1668.09 1273.43 1675.34 1271.24 1682.14C1269.05 1688.95 1267.25 1694.36 1265.82 1698.39H1249.84C1250.61 1694.6 1251.62 1689.6 1252.86 1683.39C1254.11 1677.17 1255.35 1670.22 1256.59 1662.52C1257.89 1654.89 1258.96 1647.08 1259.79 1639.09L1260.85 1629.14H1283.58ZM1377.8 1656.84C1365.49 1656.84 1354.68 1653.91 1345.39 1648.05C1336.16 1642.19 1328.94 1634 1323.73 1623.46C1318.58 1612.93 1316.01 1600.61 1316.01 1586.53C1316.01 1572.32 1318.58 1559.92 1323.73 1549.33C1328.94 1538.74 1336.16 1530.51 1345.39 1524.65C1354.68 1518.79 1365.49 1515.86 1377.8 1515.86C1390.11 1515.86 1400.88 1518.79 1410.11 1524.65C1419.4 1530.51 1426.62 1538.74 1431.77 1549.33C1436.98 1559.92 1439.59 1572.32 1439.59 1586.53C1439.59 1600.61 1436.98 1612.93 1431.77 1623.46C1426.62 1634 1419.4 1642.19 1410.11 1648.05C1400.88 1653.91 1390.11 1656.84 1377.8 1656.84ZM1377.8 1638.02C1387.15 1638.02 1394.84 1635.62 1400.88 1630.83C1406.92 1626.03 1411.38 1619.73 1414.28 1611.92C1417.18 1604.11 1418.63 1595.64 1418.63 1586.53C1418.63 1577.41 1417.18 1568.92 1414.28 1561.05C1411.38 1553.18 1406.92 1546.81 1400.88 1541.96C1394.84 1537.11 1387.15 1534.68 1377.8 1534.68C1368.45 1534.68 1360.75 1537.11 1354.71 1541.96C1348.68 1546.81 1344.21 1553.18 1341.31 1561.05C1338.41 1568.92 1336.96 1577.41 1336.96 1586.53C1336.96 1595.64 1338.41 1604.11 1341.31 1611.92C1344.21 1619.73 1348.68 1626.03 1354.71 1630.83C1360.75 1635.62 1368.45 1638.02 1377.8 1638.02ZM1491.1 1604.28L1490.74 1578.36H1495.01L1554.67 1517.64H1580.59L1517.02 1581.91H1515.25L1491.1 1604.28ZM1471.57 1654V1472.18H1492.52V1654H1471.57ZM1558.22 1654L1504.95 1586.53L1519.86 1571.97L1584.85 1654H1558.22ZM1626.02 1472.18V1488.16C1626.02 1493.02 1625.13 1498.19 1623.36 1503.7C1621.64 1509.14 1619.1 1514.44 1615.72 1519.59C1612.41 1524.68 1608.38 1529.12 1603.65 1532.91L1592.29 1523.67C1596.01 1518.35 1599.24 1512.81 1601.96 1507.07C1604.74 1501.27 1606.13 1495.09 1606.13 1488.52V1472.18H1626.02ZM1671.48 1472.18V1488.16C1671.48 1493.02 1670.59 1498.19 1668.81 1503.7C1667.1 1509.14 1664.55 1514.44 1661.18 1519.59C1657.86 1524.68 1653.84 1529.12 1649.1 1532.91L1637.74 1523.67C1641.47 1518.35 1644.69 1512.81 1647.42 1507.07C1650.2 1501.27 1651.59 1495.09 1651.59 1488.52V1472.18H1671.48Z" fill="#FA8F00"/>
<path d="M272.176 648V511.636H292.418V532.233H293.838C296.324 525.486 300.822 520.011 307.332 515.809C313.843 511.607 321.182 509.506 329.349 509.506C330.888 509.506 332.812 509.535 335.12 509.594C337.428 509.654 339.174 509.742 340.358 509.861V531.168C339.648 530.99 338.02 530.724 335.475 530.369C332.989 529.954 330.356 529.747 327.574 529.747C320.945 529.747 315.027 531.138 309.818 533.92C304.669 536.642 300.585 540.43 297.567 545.283C294.607 550.077 293.128 555.552 293.128 561.707V648H272.176ZM365.194 648V511.636H386.145V648H365.194ZM375.847 488.909C371.763 488.909 368.242 487.518 365.282 484.737C362.382 481.955 360.932 478.611 360.932 474.705C360.932 470.798 362.382 467.454 365.282 464.673C368.242 461.891 371.763 460.5 375.847 460.5C379.931 460.5 383.423 461.891 386.323 464.673C389.282 467.454 390.762 470.798 390.762 474.705C390.762 478.611 389.282 481.955 386.323 484.737C383.423 487.518 379.931 488.909 375.847 488.909ZM479.562 701.977C469.442 701.977 460.741 700.675 453.462 698.071C446.182 695.526 440.115 692.152 435.262 687.95C430.468 683.807 426.651 679.368 423.81 674.634L440.5 662.915C442.394 665.401 444.791 668.241 447.691 671.438C450.591 674.693 454.557 677.504 459.587 679.871C464.677 682.298 471.336 683.511 479.562 683.511C490.571 683.511 499.656 680.848 506.817 675.521C513.979 670.195 517.56 661.849 517.56 650.486V622.787H515.784C514.245 625.273 512.055 628.35 509.214 632.02C506.433 635.63 502.408 638.856 497.141 641.697C491.932 644.478 484.889 645.869 476.011 645.869C465.003 645.869 455.119 643.265 446.359 638.057C437.659 632.848 430.764 625.273 425.674 615.33C420.643 605.386 418.128 593.312 418.128 579.108C418.128 565.14 420.584 552.978 425.496 542.62C430.409 532.203 437.245 524.154 446.004 518.472C454.764 512.731 464.884 509.861 476.366 509.861C485.244 509.861 492.287 511.34 497.496 514.3C502.763 517.2 506.788 520.514 509.57 524.243C512.411 527.912 514.6 530.931 516.139 533.298H518.27V511.636H538.511V651.906C538.511 663.625 535.848 673.154 530.521 680.493C525.254 687.891 518.152 693.307 509.214 696.739C500.337 700.231 490.453 701.977 479.562 701.977ZM478.852 627.048C487.257 627.048 494.359 625.125 500.159 621.278C505.959 617.431 510.369 611.897 513.387 604.676C516.406 597.455 517.915 588.814 517.915 578.753C517.915 568.928 516.435 560.257 513.476 552.741C510.517 545.224 506.137 539.335 500.337 535.074C494.536 530.812 487.375 528.682 478.852 528.682C469.974 528.682 462.576 530.931 456.658 535.429C450.798 539.927 446.389 545.964 443.43 553.54C440.53 561.116 439.08 569.52 439.08 578.753C439.08 588.223 440.559 596.597 443.518 603.877C446.537 611.098 450.976 616.78 456.835 620.923C462.754 625.006 470.093 627.048 478.852 627.048ZM597.815 565.969V648H576.864V466.182H597.815V532.943H599.591C602.787 525.9 607.581 520.307 613.973 516.164C620.424 511.962 629.006 509.861 639.719 509.861C649.011 509.861 657.149 511.725 664.133 515.454C671.117 519.123 676.532 524.776 680.379 532.411C684.286 539.986 686.239 549.634 686.239 561.352V648H665.287V562.773C665.287 551.942 662.476 543.567 656.853 537.648C651.29 531.671 643.566 528.682 633.682 528.682C626.816 528.682 620.661 530.132 615.216 533.032C609.83 535.932 605.569 540.164 602.432 545.727C599.354 551.291 597.815 558.038 597.815 565.969ZM783.873 511.636V529.392H713.205V511.636H783.873ZM733.802 478.966H754.753V608.938C754.753 614.856 755.612 619.295 757.328 622.254C759.104 625.154 761.353 627.107 764.075 628.114C766.857 629.061 769.787 629.534 772.864 629.534C775.172 629.534 777.066 629.416 778.546 629.179C780.026 628.883 781.209 628.646 782.097 628.469L786.358 647.29C784.938 647.822 782.955 648.355 780.41 648.888C777.865 649.48 774.64 649.776 770.733 649.776C764.815 649.776 759.015 648.503 753.333 645.958C747.71 643.413 743.035 639.536 739.306 634.328C735.636 629.12 733.802 622.55 733.802 614.619V478.966Z" fill="#737370"/>
<path d="M253 566.146H796.302V583.192H253V566.146Z" fill="#737370"/>
<path d="M1037.18 648V511.636H1057.42V532.233H1058.84C1061.32 525.486 1065.82 520.011 1072.33 515.809C1078.84 511.607 1086.18 509.506 1094.35 509.506C1095.89 509.506 1097.81 509.535 1100.12 509.594C1102.43 509.654 1104.17 509.742 1105.36 509.861V531.168C1104.65 530.99 1103.02 530.724 1100.48 530.369C1097.99 529.954 1095.36 529.747 1092.57 529.747C1085.95 529.747 1080.03 531.138 1074.82 533.92C1069.67 536.642 1065.59 540.43 1062.57 545.283C1059.61 550.077 1058.13 555.552 1058.13 561.707V648H1037.18ZM1130.19 648V511.636H1151.15V648H1130.19ZM1140.85 488.909C1136.76 488.909 1133.24 487.518 1130.28 484.737C1127.38 481.955 1125.93 478.611 1125.93 474.705C1125.93 470.798 1127.38 467.454 1130.28 464.673C1133.24 461.891 1136.76 460.5 1140.85 460.5C1144.93 460.5 1148.42 461.891 1151.32 464.673C1154.28 467.454 1155.76 470.798 1155.76 474.705C1155.76 478.611 1154.28 481.955 1151.32 484.737C1148.42 487.518 1144.93 488.909 1140.85 488.909ZM1244.56 701.977C1234.44 701.977 1225.74 700.675 1218.46 698.071C1211.18 695.526 1205.12 692.152 1200.26 687.95C1195.47 683.807 1191.65 679.368 1188.81 674.634L1205.5 662.915C1207.39 665.401 1209.79 668.241 1212.69 671.438C1215.59 674.693 1219.56 677.504 1224.59 679.871C1229.68 682.298 1236.34 683.511 1244.56 683.511C1255.57 683.511 1264.66 680.848 1271.82 675.521C1278.98 670.195 1282.56 661.849 1282.56 650.486V622.787H1280.78C1279.25 625.273 1277.06 628.35 1274.21 632.02C1271.43 635.63 1267.41 638.856 1262.14 641.697C1256.93 644.478 1249.89 645.869 1241.01 645.869C1230 645.869 1220.12 643.265 1211.36 638.057C1202.66 632.848 1195.76 625.273 1190.67 615.33C1185.64 605.386 1183.13 593.312 1183.13 579.108C1183.13 565.14 1185.58 552.978 1190.5 542.62C1195.41 532.203 1202.24 524.154 1211 518.472C1219.76 512.731 1229.88 509.861 1241.37 509.861C1250.24 509.861 1257.29 511.34 1262.5 514.3C1267.76 517.2 1271.79 520.514 1274.57 524.243C1277.41 527.912 1279.6 530.931 1281.14 533.298H1283.27V511.636H1303.51V651.906C1303.51 663.625 1300.85 673.154 1295.52 680.493C1290.25 687.891 1283.15 693.307 1274.21 696.739C1265.34 700.231 1255.45 701.977 1244.56 701.977ZM1243.85 627.048C1252.26 627.048 1259.36 625.125 1265.16 621.278C1270.96 617.431 1275.37 611.897 1278.39 604.676C1281.41 597.455 1282.91 588.814 1282.91 578.753C1282.91 568.928 1281.44 560.257 1278.48 552.741C1275.52 545.224 1271.14 539.335 1265.34 535.074C1259.54 530.812 1252.38 528.682 1243.85 528.682C1234.97 528.682 1227.58 530.931 1221.66 535.429C1215.8 539.927 1211.39 545.964 1208.43 553.54C1205.53 561.116 1204.08 569.52 1204.08 578.753C1204.08 588.223 1205.56 596.597 1208.52 603.877C1211.54 611.098 1215.98 616.78 1221.84 620.923C1227.75 625.006 1235.09 627.048 1243.85 627.048ZM1362.82 565.969V648H1341.86V466.182H1362.82V532.943H1364.59C1367.79 525.9 1372.58 520.307 1378.97 516.164C1385.42 511.962 1394.01 509.861 1404.72 509.861C1414.01 509.861 1422.15 511.725 1429.13 515.454C1436.12 519.123 1441.53 524.776 1445.38 532.411C1449.29 539.986 1451.24 549.634 1451.24 561.352V648H1430.29V562.773C1430.29 551.942 1427.48 543.567 1421.85 537.648C1416.29 531.671 1408.57 528.682 1398.68 528.682C1391.82 528.682 1385.66 530.132 1380.22 533.032C1374.83 535.932 1370.57 540.164 1367.43 545.727C1364.35 551.291 1362.82 558.038 1362.82 565.969ZM1548.87 511.636V529.392H1478.21V511.636H1548.87ZM1498.8 478.966H1519.75V608.938C1519.75 614.856 1520.61 619.295 1522.33 622.254C1524.1 625.154 1526.35 627.107 1529.08 628.114C1531.86 629.061 1534.79 629.534 1537.86 629.534C1540.17 629.534 1542.07 629.416 1543.55 629.179C1545.03 628.883 1546.21 628.646 1547.1 628.469L1551.36 647.29C1549.94 647.822 1547.96 648.355 1545.41 648.888C1542.87 649.48 1539.64 649.776 1535.73 649.776C1529.81 649.776 1524.01 648.503 1518.33 645.958C1512.71 643.413 1508.03 639.536 1504.31 634.328C1500.64 629.12 1498.8 622.55 1498.8 614.619V478.966Z" fill="#737370"/>
<path d="M1018 566.146H1561.3V583.192H1018V566.146Z" fill="#737370"/>
<path d="M293.128 921.182V1103H272.176V921.182H293.128ZM388.676 1105.84C375.536 1105.84 364.202 1102.94 354.673 1097.14C345.204 1091.28 337.894 1083.11 332.745 1072.64C327.655 1062.1 325.11 1049.85 325.11 1035.88C325.11 1021.92 327.655 1009.61 332.745 998.952C337.894 988.239 345.056 979.894 354.23 973.916C363.463 967.879 374.234 964.861 386.545 964.861C393.647 964.861 400.661 966.045 407.585 968.412C414.51 970.779 420.813 974.626 426.495 979.953C432.177 985.221 436.705 992.205 440.078 1000.9C443.452 1009.61 445.139 1020.32 445.139 1033.04V1041.92H340.025V1023.81H423.832C423.832 1016.12 422.293 1009.25 419.215 1003.21C416.197 997.176 411.876 992.412 406.254 988.92C400.69 985.428 394.121 983.682 386.545 983.682C378.2 983.682 370.979 985.753 364.883 989.896C358.846 993.98 354.2 999.307 350.945 1005.88C347.69 1012.45 346.062 1019.49 346.062 1027.01V1039.08C346.062 1049.38 347.838 1058.11 351.389 1065.27C354.999 1072.37 360 1077.79 366.392 1081.52C372.784 1085.19 380.212 1087.02 388.676 1087.02C394.18 1087.02 399.151 1086.25 403.59 1084.71C408.088 1083.11 411.965 1080.75 415.22 1077.61C418.476 1074.41 420.991 1070.45 422.767 1065.71L443.008 1071.39C440.877 1078.26 437.297 1084.3 432.266 1089.51C427.235 1094.65 421.021 1098.68 413.622 1101.58C406.224 1104.42 397.909 1105.84 388.676 1105.84ZM537.735 966.636V984.392H464.226V966.636H537.735ZM486.243 1103V947.815C486.243 940.003 488.078 933.492 491.747 928.284C495.417 923.076 500.181 919.169 506.041 916.565C511.9 913.961 518.085 912.659 524.595 912.659C529.744 912.659 533.947 913.073 537.202 913.902C540.457 914.731 542.884 915.5 544.482 916.21L538.445 934.321C537.379 933.966 535.9 933.522 534.006 932.989C532.171 932.457 529.744 932.19 526.726 932.19C519.801 932.19 514.8 933.936 511.722 937.428C508.704 940.92 507.195 946.04 507.195 952.787V1103H486.243ZM626.402 966.636V984.392H555.734V966.636H626.402ZM576.331 933.966H597.283V1063.94C597.283 1069.86 598.141 1074.29 599.857 1077.25C601.633 1080.15 603.882 1082.11 606.604 1083.11C609.386 1084.06 612.316 1084.53 615.393 1084.53C617.702 1084.53 619.596 1084.42 621.075 1084.18C622.555 1083.88 623.739 1083.65 624.626 1083.47L628.888 1102.29C627.467 1102.82 625.485 1103.36 622.94 1103.89C620.395 1104.48 617.169 1104.78 613.263 1104.78C607.344 1104.78 601.544 1103.5 595.862 1100.96C590.24 1098.41 585.564 1094.54 581.835 1089.33C578.166 1084.12 576.331 1077.55 576.331 1069.62V933.966Z" fill="#737370"/>
<path d="M1058.13 921.182V1103H1037.18V921.182H1058.13ZM1153.68 1105.84C1140.54 1105.84 1129.2 1102.94 1119.67 1097.14C1110.2 1091.28 1102.89 1083.11 1097.75 1072.64C1092.66 1062.1 1090.11 1049.85 1090.11 1035.88C1090.11 1021.92 1092.66 1009.61 1097.75 998.952C1102.89 988.239 1110.06 979.894 1119.23 973.916C1128.46 967.879 1139.23 964.861 1151.54 964.861C1158.65 964.861 1165.66 966.045 1172.59 968.412C1179.51 970.779 1185.81 974.626 1191.5 979.953C1197.18 985.221 1201.7 992.205 1205.08 1000.9C1208.45 1009.61 1210.14 1020.32 1210.14 1033.04V1041.92H1105.03V1023.81H1188.83C1188.83 1016.12 1187.29 1009.25 1184.22 1003.21C1181.2 997.176 1176.88 992.412 1171.25 988.92C1165.69 985.428 1159.12 983.682 1151.54 983.682C1143.2 983.682 1135.98 985.753 1129.88 989.896C1123.85 993.98 1119.2 999.307 1115.94 1005.88C1112.69 1012.45 1111.06 1019.49 1111.06 1027.01V1039.08C1111.06 1049.38 1112.84 1058.11 1116.39 1065.27C1120 1072.37 1125 1077.79 1131.39 1081.52C1137.78 1085.19 1145.21 1087.02 1153.68 1087.02C1159.18 1087.02 1164.15 1086.25 1168.59 1084.71C1173.09 1083.11 1176.97 1080.75 1180.22 1077.61C1183.48 1074.41 1185.99 1070.45 1187.77 1065.71L1208.01 1071.39C1205.88 1078.26 1202.3 1084.3 1197.27 1089.51C1192.24 1094.65 1186.02 1098.68 1178.62 1101.58C1171.22 1104.42 1162.91 1105.84 1153.68 1105.84ZM1302.73 966.636V984.392H1229.23V966.636H1302.73ZM1251.24 1103V947.815C1251.24 940.003 1253.08 933.492 1256.75 928.284C1260.42 923.076 1265.18 919.169 1271.04 916.565C1276.9 913.961 1283.08 912.659 1289.6 912.659C1294.74 912.659 1298.95 913.073 1302.2 913.902C1305.46 914.731 1307.88 915.5 1309.48 916.21L1303.44 934.321C1302.38 933.966 1300.9 933.522 1299.01 932.989C1297.17 932.457 1294.74 932.19 1291.73 932.19C1284.8 932.19 1279.8 933.936 1276.72 937.428C1273.7 940.92 1272.19 946.04 1272.19 952.787V1103H1251.24ZM1391.4 966.636V984.392H1320.73V966.636H1391.4ZM1341.33 933.966H1362.28V1063.94C1362.28 1069.86 1363.14 1074.29 1364.86 1077.25C1366.63 1080.15 1368.88 1082.11 1371.6 1083.11C1374.39 1084.06 1377.32 1084.53 1380.39 1084.53C1382.7 1084.53 1384.6 1084.42 1386.08 1084.18C1387.55 1083.88 1388.74 1083.65 1389.63 1083.47L1393.89 1102.29C1392.47 1102.82 1390.48 1103.36 1387.94 1103.89C1385.39 1104.48 1382.17 1104.78 1378.26 1104.78C1372.34 1104.78 1366.54 1103.5 1360.86 1100.96C1355.24 1098.41 1350.56 1094.54 1346.84 1089.33C1343.17 1084.12 1341.33 1077.55 1341.33 1069.62V933.966Z" fill="#737370"/>
<path d="M544.697 458.303C547.626 461.232 552.374 461.232 555.303 458.303L603.033 410.574C605.962 407.645 605.962 402.896 603.033 399.967C600.104 397.038 595.355 397.038 592.426 399.967L550 442.393L507.574 399.967C504.645 397.038 499.896 397.038 496.967 399.967C494.038 402.896 494.038 407.645 496.967 410.574L544.697 458.303ZM542.5 303V453H557.5V303H542.5Z" fill="#82D1F5"/>
<path d="M1284.7 458.303C1287.63 461.232 1292.37 461.232 1295.3 458.303L1343.03 410.574C1345.96 407.645 1345.96 402.896 1343.03 399.967C1340.1 397.038 1335.36 397.038 1332.43 399.967L1290 442.393L1247.57 399.967C1244.64 397.038 1239.9 397.038 1236.97 399.967C1234.04 402.896 1234.04 407.645 1236.97 410.574L1284.7 458.303ZM1282.5 303V453H1297.5V303H1282.5Z" fill="#82D1F5"/>
<path d="M544.697 1471.3C547.626 1474.23 552.374 1474.23 555.303 1471.3L603.033 1423.57C605.962 1420.64 605.962 1415.9 603.033 1412.97C600.104 1410.04 595.355 1410.04 592.426 1412.97L550 1455.39L507.574 1412.97C504.645 1410.04 499.896 1410.04 496.967 1412.97C494.038 1415.9 494.038 1420.64 496.967 1423.57L544.697 1471.3ZM542.5 1141V1466H557.5V1141H542.5Z" fill="#82D1F5"/>
<path d="M1010.53 1466.66C1010.9 1470.79 1014.54 1473.84 1018.66 1473.47L1085.9 1467.5C1090.02 1467.14 1093.07 1463.49 1092.71 1459.37C1092.34 1455.24 1088.7 1452.19 1084.57 1452.56L1024.81 1457.87L1019.5 1398.1C1019.14 1393.98 1015.49 1390.93 1011.37 1391.29C1007.24 1391.66 1004.19 1395.3 1004.56 1399.43L1010.53 1466.66ZM1284.25 1136.19L1012.25 1461.19L1023.75 1470.81L1295.75 1145.81L1284.25 1136.19Z" fill="#82D1F5"/>
<path d="M1437.84 1468.23C1439.07 1472.19 1443.28 1474.39 1447.23 1473.16L1511.67 1453.06C1515.63 1451.83 1517.83 1447.62 1516.6 1443.67C1515.36 1439.71 1511.16 1437.51 1507.21 1438.74L1449.93 1456.61L1432.06 1399.33C1430.83 1395.37 1426.62 1393.17 1422.67 1394.4C1418.71 1395.64 1416.51 1399.84 1417.74 1403.79L1437.84 1468.23ZM2048.36 299.516L1438.36 1462.52L1451.64 1469.48L2061.64 306.484L2048.36 299.516Z" fill="#82D1F5"/>
<path d="M171.697 1471.31C174.626 1474.24 179.374 1474.24 182.303 1471.31L230.033 1423.58C232.962 1420.65 232.962 1415.9 230.033 1412.97C227.104 1410.04 222.355 1410.04 219.426 1412.97L177 1455.4L134.574 1412.97C131.645 1410.04 126.896 1410.04 123.967 1412.97C121.038 1415.9 121.038 1420.65 123.967 1423.58L171.697 1471.31ZM169.5 302.996L169.5 1466H184.5L184.5 302.996H169.5Z" fill="#82D1F5"/>
<path d="M791.188 1470.74C793.807 1473.95 798.531 1474.43 801.741 1471.81L854.045 1429.14C857.254 1426.53 857.734 1421.8 855.115 1418.59C852.497 1415.38 847.773 1414.9 844.563 1417.52L798.071 1455.45L760.144 1408.96C757.525 1405.75 752.801 1405.27 749.591 1407.88C746.382 1410.5 745.902 1415.23 748.521 1418.44L791.188 1470.74ZM907.538 302.243L789.538 1465.24L804.462 1466.76L922.462 303.757L907.538 302.243Z" fill="#82D1F5"/>
<path d="M520.278 789.179L528.145 786.588C528.765 786.384 529.416 786.314 530.061 786.381C530.706 786.447 531.333 786.65 531.906 786.978C532.478 787.305 532.985 787.75 533.397 788.288C533.81 788.826 534.119 789.447 534.309 790.113C534.499 790.78 534.564 791.481 534.502 792.175C534.44 792.869 534.251 793.543 533.947 794.159C533.643 794.775 533.229 795.32 532.729 795.763C532.228 796.207 531.652 796.54 531.032 796.744L512.154 802.955C511.534 803.159 510.883 803.23 510.237 803.163C509.591 803.096 508.964 802.892 508.392 802.565C507.819 802.237 507.313 801.791 506.901 801.252C506.488 800.713 506.179 800.092 505.99 799.425L500.216 779.119C500.026 778.452 499.961 777.752 500.023 777.058C500.085 776.363 500.273 775.689 500.578 775.074C500.882 774.458 501.296 773.913 501.796 773.469C502.296 773.026 502.873 772.692 503.493 772.488C504.745 772.076 506.098 772.217 507.254 772.878C508.41 773.539 509.274 774.667 509.657 776.013L511.829 783.663C523.713 763.973 547.289 755.506 568.22 764.732C574.479 767.492 580.1 771.694 584.688 777.042C589.275 782.39 592.717 788.755 594.772 795.688C594.982 796.355 595.067 797.062 595.021 797.765C594.975 798.469 594.799 799.155 594.504 799.785C594.208 800.415 593.799 800.975 593.3 801.432C592.802 801.89 592.223 802.236 591.598 802.45C590.974 802.665 590.316 802.743 589.663 802.681C589.01 802.619 588.375 802.417 587.795 802.088C587.215 801.759 586.702 801.309 586.285 800.764C585.869 800.22 585.558 799.591 585.37 798.915C583.285 791.873 579.39 785.608 574.136 780.844C568.882 776.081 562.483 773.013 555.677 771.995C548.871 770.977 541.937 772.05 535.674 775.091C529.411 778.131 524.07 783.016 520.278 789.179ZM581.116 832.684L572.355 835.036C571.721 835.223 571.058 835.272 570.406 835.18C569.754 835.088 569.126 834.856 568.558 834.499C567.99 834.141 567.495 833.666 567.1 833.1C566.706 832.533 566.421 831.888 566.262 831.202C566.102 830.515 566.072 829.801 566.173 829.102C566.274 828.403 566.504 827.733 566.849 827.13C567.194 826.528 567.648 826.006 568.183 825.595C568.719 825.184 569.325 824.893 569.967 824.737L587.946 819.912C588.883 819.432 589.936 819.283 590.957 819.487C591.939 819.626 592.86 820.08 593.6 820.79C594.339 821.5 594.863 822.434 595.102 823.468L599.88 844.066C600.163 845.419 599.942 846.838 599.266 848.018C598.589 849.198 597.51 850.047 596.259 850.383C595.009 850.718 593.685 850.514 592.573 849.814C591.46 849.114 590.646 847.973 590.305 846.636L588.676 839.618C583.925 846.973 577.416 852.814 569.837 856.525C562.258 860.236 553.889 861.679 545.612 860.703C537.334 859.727 529.454 856.368 522.803 850.979C516.151 845.59 510.974 838.371 507.816 830.083L506.533 826.717C506.287 826.072 506.162 825.381 506.165 824.684C506.167 823.987 506.298 823.297 506.548 822.654C506.799 822.011 507.164 821.427 507.625 820.936C508.085 820.445 508.63 820.056 509.23 819.792C510.442 819.258 511.8 819.264 513.008 819.808C513.606 820.078 514.148 820.471 514.605 820.966C515.061 821.461 515.423 822.048 515.668 822.693L516.951 826.054C519.467 832.657 523.612 838.396 528.937 842.651C534.263 846.906 540.568 849.516 547.172 850.199C553.776 850.882 560.427 849.612 566.409 846.526C572.391 843.441 577.476 838.651 581.116 832.684Z" fill="#82D1F5"/>
<path d="M1260.28 789.179L1268.14 786.588C1268.76 786.384 1269.42 786.314 1270.06 786.381C1270.71 786.447 1271.33 786.65 1271.91 786.978C1272.48 787.305 1272.98 787.75 1273.4 788.288C1273.81 788.826 1274.12 789.447 1274.31 790.113C1274.5 790.78 1274.56 791.481 1274.5 792.175C1274.44 792.869 1274.25 793.543 1273.95 794.159C1273.64 794.775 1273.23 795.32 1272.73 795.763C1272.23 796.207 1271.65 796.54 1271.03 796.744L1252.15 802.955C1251.53 803.159 1250.88 803.23 1250.24 803.163C1249.59 803.096 1248.96 802.892 1248.39 802.565C1247.82 802.237 1247.31 801.791 1246.9 801.252C1246.49 800.713 1246.18 800.092 1245.99 799.425L1240.22 779.119C1240.03 778.452 1239.96 777.752 1240.02 777.058C1240.08 776.363 1240.27 775.689 1240.58 775.074C1240.88 774.458 1241.3 773.913 1241.8 773.469C1242.3 773.026 1242.87 772.692 1243.49 772.488C1244.74 772.076 1246.1 772.217 1247.25 772.878C1248.41 773.539 1249.27 774.667 1249.66 776.013L1251.83 783.663C1263.71 763.973 1287.29 755.506 1308.22 764.732C1314.48 767.492 1320.1 771.694 1324.69 777.042C1329.27 782.39 1332.72 788.755 1334.77 795.688C1334.98 796.355 1335.07 797.062 1335.02 797.765C1334.98 798.469 1334.8 799.155 1334.5 799.785C1334.21 800.415 1333.8 800.975 1333.3 801.432C1332.8 801.89 1332.22 802.236 1331.6 802.45C1330.97 802.665 1330.32 802.743 1329.66 802.681C1329.01 802.619 1328.37 802.417 1327.79 802.088C1327.21 801.759 1326.7 801.309 1326.29 800.764C1325.87 800.22 1325.56 799.591 1325.37 798.915C1323.28 791.873 1319.39 785.608 1314.14 780.844C1308.88 776.081 1302.48 773.013 1295.68 771.995C1288.87 770.977 1281.94 772.05 1275.67 775.091C1269.41 778.131 1264.07 783.016 1260.28 789.179ZM1321.12 832.684L1312.36 835.036C1311.72 835.223 1311.06 835.272 1310.41 835.18C1309.75 835.088 1309.13 834.856 1308.56 834.499C1307.99 834.141 1307.49 833.666 1307.1 833.1C1306.71 832.533 1306.42 831.888 1306.26 831.202C1306.1 830.515 1306.07 829.801 1306.17 829.102C1306.27 828.403 1306.5 827.733 1306.85 827.13C1307.19 826.528 1307.65 826.006 1308.18 825.595C1308.72 825.184 1309.32 824.893 1309.97 824.737L1327.95 819.912C1328.88 819.432 1329.94 819.283 1330.96 819.487C1331.94 819.626 1332.86 820.08 1333.6 820.79C1334.34 821.5 1334.86 822.434 1335.1 823.468L1339.88 844.066C1340.16 845.419 1339.94 846.838 1339.27 848.018C1338.59 849.198 1337.51 850.047 1336.26 850.383C1335.01 850.718 1333.69 850.514 1332.57 849.814C1331.46 849.114 1330.65 847.973 1330.31 846.636L1328.68 839.618C1323.92 846.973 1317.42 852.814 1309.84 856.525C1302.26 860.236 1293.89 861.679 1285.61 860.703C1277.33 859.727 1269.45 856.368 1262.8 850.979C1256.15 845.59 1250.97 838.371 1247.82 830.083L1246.53 826.717C1246.29 826.072 1246.16 825.381 1246.16 824.684C1246.17 823.987 1246.3 823.297 1246.55 822.654C1246.8 822.011 1247.16 821.427 1247.62 820.936C1248.08 820.445 1248.63 820.056 1249.23 819.792C1250.44 819.258 1251.8 819.264 1253.01 819.808C1253.61 820.078 1254.15 820.471 1254.6 820.966C1255.06 821.461 1255.42 822.048 1255.67 822.693L1256.95 826.054C1259.47 832.657 1263.61 838.396 1268.94 842.651C1274.26 846.906 1280.57 849.516 1287.17 850.199C1293.78 850.882 1300.43 849.612 1306.41 846.526C1312.39 843.441 1317.48 838.651 1321.12 832.684Z" fill="#82D1F5"/>
</svg>
